<svg xmlns="http://www.w3.org/2000/svg" viewBox="0 0 386.46 434.39"><defs><style>.cls-1,.cls-4{fill:#231f20;}.cls-2,.cls-3{fill:#fff;}.cls-3,.cls-4{fill-rule:evenodd;}</style></defs><title>spiceship</title><g id="Layer_2" data-name="Layer 2"><g id="Layer_1-2" data-name="Layer 1"><path class="cls-1" d="M135.32,143.39q-34.5,27.45-15,66.21c3.39-24.7,13.69-31.7,26.53-36.47-5.4-7.92-8.39-18-11.49-29.74Z"/><path class="cls-1" d="M135,104.65C129.12,48.92,151.48,1.05,159.8,0c7.67-.95,40.17,41.45,46,97.18,3.59,34.21-1.35,65.29-8.92,84.54a120.37,120.37,0,0,1-36.68,3.85C149,168.32,138.57,138.85,135,104.65Z"/><path class="cls-2" d="M158.17,109.82a15.05,15.05,0,1,0,13.4-16.54,15,15,0,0,0-13.4,16.54Zm-4.67.57A19.83,19.83,0,1,1,175.3,128a19.83,19.83,0,0,1-21.8-17.65Z"/><path class="cls-2" d="M141.94,49.32c4.43-23.87,17.31-61,37.44-14.72C157.26,8.14,153.52,29.2,148,48.4l-6.05.92Z"/><path class="cls-2" d="M145.09,66.13c-1,37.58,5.25,87.24,15.3,114-16-25.77-26.21-85.07-21.66-113l6.36-1Z"/><path class="cls-1" d="M212.42,134.23q40.44,17.6,31.66,60.06c-9.66-23-22.73-27.07-36.36-28.35a77.12,77.12,0,0,0,4.7-31.71Z"/><path class="cls-2" d="M115.49,182.25c.3-4,3.9-20.35,18.84-34.37.66,11.63,8.93,24.53,8.93,24.53-8.69-3.63-27,5.24-27.77,9.84Z"/><path class="cls-1" d="M63.14,313.46a17.3,17.3,0,0,1-.74-3.75A20.7,20.7,0,0,1,87.16,287.3,31.34,31.34,0,0,1,115.21,255c9.49-1,20,1.37,26.37,7.46,13.4-6.23,26.39.31,28,13.1l-.74,2.56c-5.19-15.09-23.72-12.86-25.88-8.66A31.29,31.29,0,0,0,118.05,261c-16.5,1.74-28.15,15.93-27.53,32.27-13.8-5-25.7,10.18-24.51,21.54a17.31,17.31,0,0,0,.75,3.75l-3.62-5.09Z"/><path class="cls-1" d="M161,189.08a113.77,113.77,0,0,0,35.61-3.75l-.41,23.32a50.78,50.78,0,0,1-30,3.15L161,189.08Z"/><path class="cls-1" d="M132.2,179.43a6,6,0,0,1,4-3l4.11,61h-.07l-8.08-58.06Z"/><polygon class="cls-1" points="213.91 166.34 217.97 165.91 220.39 208.56 220.34 208.56 213.91 166.34 213.91 166.34"/><polygon class="cls-1" points="221.86 163.27 225.93 162.84 234.31 262.18 234.25 262.19 221.86 163.27 221.86 163.27"/><polygon class="cls-1" points="228.33 158.66 232.39 158.23 234.81 200.88 234.75 200.88 228.33 158.66 228.33 158.66"/><path class="cls-2" d="M165.94,133.42l3.53,52.26H168l-7.7-54.35.41,0a28.68,28.68,0,0,0,5.26,2.13Z"/><path class="cls-2" d="M177.38,134.36,181,188.47H181l-7.66-53.91a27.69,27.69,0,0,0,3.63-.15l.45,0Z"/><path class="cls-2" d="M187.59,131.1l1.12,25.05h-.05l-3.89-23.71a30.38,30.38,0,0,0,2.82-1.34Z"/><path class="cls-2" d="M153.35,21.66l.29,0a19.25,19.25,0,0,0,3.7,1.5l2,29.5-1.55.16-4.42-31.13Z"/><path class="cls-2" d="M162.3,19.12l.2,0a13.69,13.69,0,0,0,2.57,1l2.32,34.61h0L162.3,19.12Z"/><path class="cls-2" d="M169.59,22.16l.21,0a18.84,18.84,0,0,0,2.51.54l.92,21.25h0l-3.6-21.77Z"/><path class="cls-2" d="M136.22,52.59c9.09-.5,18.52-1.25,28.17-2.26,10.18-1.07,20.05-2.38,29.5-3.88l2.16,3c-10,1.62-20.48,3-31.31,4.17-10.33,1.08-20.41,1.87-30.1,2.36l1.58-3.42Z"/><path class="cls-2" d="M156.12,52.93h.13a9,9,0,0,0,1.61.65l1.45,21.65h0l-3.17-22.29Z"/><path class="cls-2" d="M165.6,51.05h.12a8.12,8.12,0,0,0,1.64.93l2.22,28.94h0l-4-29.86Z"/><path class="cls-3" d="M178.79,79.94h-.12a8,8,0,0,0-1.62-.7l-1.6-23.09h0l3.32,23.78Z"/><path class="cls-2" d="M242,169c-1.13-3.85-8-19.1-25.58-29.71a30,30,0,0,1-1,8.76c14.24,2.11,24.86,16.61,26.58,20.95Z"/><path class="cls-1" d="M240,262.35A15.3,15.3,0,0,1,254.34,267a28.7,28.7,0,0,1,15.17-8.16c14.57-2.73,28.73,6.82,29.18,21.68a22.73,22.73,0,0,1-2.23,10.37,26.42,26.42,0,0,0-.12-4,24.34,24.34,0,0,0-29.19-21.68A28.81,28.81,0,0,0,252,273.36a15.42,15.42,0,0,0-14.36-4.61,18.1,18.1,0,0,0-9.83,5.44S230,264.3,240,262.35Z"/><path class="cls-1" d="M55.18,344.65a14.26,14.26,0,0,1-.62,4.22A13.12,13.12,0,0,1,53,352.36a9.74,9.74,0,0,1-2.55,2.53,8.6,8.6,0,0,1-3.27,1.38,7.55,7.55,0,0,1-3.68-.09,6.53,6.53,0,0,1-2.81-1.93,13.87,13.87,0,0,0,3.17-4.48A13.11,13.11,0,0,0,45,344.34q0-3.42-2-5t-5.55-.91a10.94,10.94,0,0,0-4,1.62,11.63,11.63,0,0,0-3.06,2.84,13.37,13.37,0,0,0-2,3.77,14.17,14.17,0,0,0-.68,4.44,11.71,11.71,0,0,0,1.71,6.3,27.23,27.23,0,0,0,4.31,5.27q2.6,2.49,5.61,5a45.16,45.16,0,0,1,5.6,5.47,27.47,27.47,0,0,1,4.31,6.72A20.28,20.28,0,0,1,51,388.51a24.77,24.77,0,0,1-2.18,10.14,31.45,31.45,0,0,1-6.08,8.9,37.42,37.42,0,0,1-9.08,6.85,38.21,38.21,0,0,1-11.27,4.12,29.08,29.08,0,0,1-9.24.5,16.7,16.7,0,0,1-7-2.33,13.06,13.06,0,0,1-4.52-5A15.73,15.73,0,0,1,0,404.37a20.68,20.68,0,0,1,1.14-6.82,21.43,21.43,0,0,1,3.12-5.92,19,19,0,0,1,4.67-4.51,15.55,15.55,0,0,1,5.76-2.45,9.19,9.19,0,0,1,6.28.61,6.17,6.17,0,0,1,3.17,4.5,17.69,17.69,0,0,0-5,1.79,14.6,14.6,0,0,0-3.79,2.94,13,13,0,0,0-2.44,3.91,12.78,12.78,0,0,0-.83,4.63c0,3.12.9,5.41,2.7,6.89s4.29,1.84,7.37,1.22a15.77,15.77,0,0,0,5.19-2,16.65,16.65,0,0,0,4.1-3.63,16.3,16.3,0,0,0,2.7-4.74,15.51,15.51,0,0,0,1-5.49,14.16,14.16,0,0,0-1-5.36,19,19,0,0,0-2.54-4.68A35.94,35.94,0,0,0,27.93,381q-2-2-4.16-4.05t-4.15-4.15A36,36,0,0,1,16,368.42a22.82,22.82,0,0,1-2.6-4.93,17,17,0,0,1-.93-5.73,19.42,19.42,0,0,1,1.76-8.09,25.1,25.1,0,0,1,5-7.17,31.43,31.43,0,0,1,7.57-5.57,33.48,33.48,0,0,1,9.5-3.4,25.29,25.29,0,0,1,7.79-.47A13.9,13.9,0,0,1,50,334.89a9.86,9.86,0,0,1,3.84,3.9,12.08,12.08,0,0,1,1.35,5.86Z"/><path class="cls-4" d="M48.26,434.39,65.09,351l15.32-3.07-1.72,8.34A28.59,28.59,0,0,1,84,351.9a20.88,20.88,0,0,1,7.06-2.71,13.94,13.94,0,0,1,5.09-.13,7.34,7.34,0,0,1,4.1,2,10.37,10.37,0,0,1,2.75,4.59,24.51,24.51,0,0,1,1,7.73,67.64,67.64,0,0,1-.52,7.89,58.42,58.42,0,0,1-1.66,8.69,56.67,56.67,0,0,1-3.17,8.68,34.88,34.88,0,0,1-4.83,7.77,30.41,30.41,0,0,1-6.9,6.15,25.84,25.84,0,0,1-9.09,3.59,17.3,17.3,0,0,1-3.52.39,10.29,10.29,0,0,1-2.6-.31,6.06,6.06,0,0,1-1.77-.84,7.63,7.63,0,0,1-1.14-1.23l-5.39,27.18-15.23,3.07ZM70.6,395.91a2.86,2.86,0,0,0,1.24,1.41,4,4,0,0,0,2.8.22,10.91,10.91,0,0,0,5-2.4,20,20,0,0,0,3.84-4.56,30.84,30.84,0,0,0,2.8-6,54.19,54.19,0,0,0,1.87-6.55,57.2,57.2,0,0,0,1-6.43,51.3,51.3,0,0,0,.36-5.68,15.1,15.1,0,0,0-.57-4.71,5.48,5.48,0,0,0-1.4-2.37,2.55,2.55,0,0,0-1.71-.75,6.3,6.3,0,0,0-1.66.07,8.73,8.73,0,0,0-3.85,2.12,15.21,15.21,0,0,0-3.47,4.59l-6.28,31Z"/><path class="cls-4" d="M133,327.21a9.27,9.27,0,0,1-.68,3.46,11,11,0,0,1-1.86,3,12.58,12.58,0,0,1-2.7,2.31,10,10,0,0,1-3.27,1.27,8.52,8.52,0,0,1-3.33.05,7.15,7.15,0,0,1-2.64-1.24,6.57,6.57,0,0,1-1.82-2.28,8,8,0,0,1-.62-3.2,9.57,9.57,0,0,1,.62-3.4,11.27,11.27,0,0,1,1.82-3.06,11.14,11.14,0,0,1,2.64-2.4,10,10,0,0,1,3.33-1.34,7.65,7.65,0,0,1,3.27,0,6.58,6.58,0,0,1,2.7,1.33,6.29,6.29,0,0,1,1.86,2.33,7,7,0,0,1,.68,3.13Zm6.59,46.91a52.55,52.55,0,0,1-3.37,8.15,38.25,38.25,0,0,1-3.84,6.11,28.1,28.1,0,0,1-8.15,7.24,22,22,0,0,1-3.79,1.74,24.7,24.7,0,0,1-3.17.9,13,13,0,0,1-4.46.16,7.41,7.41,0,0,1-3.64-1.55,8.51,8.51,0,0,1-2.38-3.47,15.19,15.19,0,0,1-.89-5.59,27.33,27.33,0,0,1,.21-3.21c.14-1.2.35-2.5.62-3.91l7.22-35.55,15.31-3.06-7.63,37.66a12.32,12.32,0,0,0-.36,1.83c0,.56-.05,1.12-.05,1.67,0,1.49.34,2.46,1,2.91a4.71,4.71,0,0,0,3.27.18,8.37,8.37,0,0,0,3-1.28,13.54,13.54,0,0,0,2.75-2.52,18.77,18.77,0,0,0,2.23-3.41,23.71,23.71,0,0,0,1.61-4.11l4.46-.89Z"/><path class="cls-1" d="M179.55,366.13a78.65,78.65,0,0,1-5.14,8.29,49.72,49.72,0,0,1-6.49,7.58,42,42,0,0,1-8,6.06,31.16,31.16,0,0,1-9.6,3.58,22.91,22.91,0,0,1-6.85.44,11,11,0,0,1-5.25-2,9.85,9.85,0,0,1-3.32-4.53,20.4,20.4,0,0,1-1.19-7.5,48.22,48.22,0,0,1,.62-7.18,60.89,60.89,0,0,1,2-8.65,65.72,65.72,0,0,1,3.58-9,42.49,42.49,0,0,1,5.4-8.29,34.46,34.46,0,0,1,7.42-6.57,26.56,26.56,0,0,1,9.61-3.9,15.84,15.84,0,0,1,5.81-.28,7.4,7.4,0,0,1,3.64,1.51,5.55,5.55,0,0,1,1.86,2.74,11.32,11.32,0,0,1,.52,3.43,12.19,12.19,0,0,1-.46,3.51,8.93,8.93,0,0,1-1.2,2.63,6.53,6.53,0,0,1-1.81,1.82,6.23,6.23,0,0,1-2.18.9,6,6,0,0,1-3.74-.5,20.36,20.36,0,0,0,1.3-6.54,5.32,5.32,0,0,0-.73-3,2,2,0,0,0-2.23-.75,6.44,6.44,0,0,0-3.33,2.17,25.48,25.48,0,0,0-3.21,4.64,51.13,51.13,0,0,0-2.81,6.27q-1.29,3.48-2.28,7.16c-.62,2.44-1.13,4.86-1.51,7.25a45.86,45.86,0,0,0-.52,6.49,16.72,16.72,0,0,0,.47,4.37,5.11,5.11,0,0,0,1.46,2.41,4.35,4.35,0,0,0,2.38.93,13.73,13.73,0,0,0,3.38-.32,20.79,20.79,0,0,0,5.71-2,25.31,25.31,0,0,0,4.82-3.25,35.35,35.35,0,0,0,4.21-4.26q2-2.39,4-5l3.63-.72Z"/><path class="cls-4" d="M220.35,358a78.65,78.65,0,0,1-5.14,8.29,49.72,49.72,0,0,1-6.49,7.58,42,42,0,0,1-8,6.06,31.16,31.16,0,0,1-9.6,3.58,22.91,22.91,0,0,1-6.85.44,11,11,0,0,1-5.25-2,9.85,9.85,0,0,1-3.32-4.53,20.38,20.38,0,0,1-1.19-7.49,48.24,48.24,0,0,1,.62-7.19,60.78,60.78,0,0,1,2-8.59,56.83,56.83,0,0,1,3.58-9,42.26,42.26,0,0,1,5.4-8.3,32.45,32.45,0,0,1,7.43-6.62,27,27,0,0,1,9.7-3.92,15.72,15.72,0,0,1,5.82-.28,7.07,7.07,0,0,1,3.58,1.52,5.47,5.47,0,0,1,1.81,2.91,12.49,12.49,0,0,1,.52,3.68,21.34,21.34,0,0,1-2,9,30.42,30.42,0,0,1-5.45,8,36.82,36.82,0,0,1-7.79,6.33,34.22,34.22,0,0,1-9.19,4c-.07.82-.14,1.59-.2,2.33s-.06,1.36-.06,2a16.72,16.72,0,0,0,.47,4.37,5.11,5.11,0,0,0,1.46,2.41,4.35,4.35,0,0,0,2.38.93,13.73,13.73,0,0,0,3.38-.32,20.79,20.79,0,0,0,5.71-2,25.31,25.31,0,0,0,4.82-3.25,35.35,35.35,0,0,0,4.21-4.26q2-2.38,4.05-5l3.63-.72Zm-29-1.73a17.55,17.55,0,0,0,5.82-2.87,24.25,24.25,0,0,0,4.93-4.88,25.09,25.09,0,0,0,3.37-6.18,18.45,18.45,0,0,0,1.3-6.7,6.65,6.65,0,0,0-.57-3.05,1.71,1.71,0,0,0-2.08-.78,7.33,7.33,0,0,0-4,2.77,29.77,29.77,0,0,0-3.64,5.77,55.2,55.2,0,0,0-3.06,7.67,73.26,73.26,0,0,0-2.08,8.25Z"/><path class="cls-4" d="M261.77,349.68a72.6,72.6,0,0,1-8.35,9.67q-4.15,3.94-7.89,6.87a23.75,23.75,0,0,1-3.74,3.76,31.41,31.41,0,0,1-4.26,2.82,28.61,28.61,0,0,1-4.46,1.93,31,31,0,0,1-4.26,1.22,17.76,17.76,0,0,1-6.95.19,11.71,11.71,0,0,1-4.83-2.2,9.38,9.38,0,0,1-2.8-3.8,12.2,12.2,0,0,1-.42-8.22,13.86,13.86,0,0,1,1.25-3.1,12.8,12.8,0,0,1,1.76-2.48,11.41,11.41,0,0,1,2.13-1.88,164.47,164.47,0,0,0,7.53-17.29q3.06-8.44,5.55-16.84l15.73-5.22q.31,6.84.57,11.88c.21,3.31.4,6.2.57,8.65s.33,4.49.47,6.19.26,3.22.36,4.55.23,2.48.26,3.58.1,2.18.11,3.35a21.49,21.49,0,0,1-.11,2.21,8.93,8.93,0,0,1-.31,1.93c1.56-1.21,3-2.38,4.2-3.49s2.43-2.29,3.43-3.39l4.46-.89ZM219,362.09q0,3.74,1.45,5.31c1,1,2.68,1.28,5,.81a14.21,14.21,0,0,0,3.42-1.15,10.61,10.61,0,0,0,3-2.25,11.14,11.14,0,0,0,2.08-3.48,13.44,13.44,0,0,0,.78-4.83c0-.9,0-1.75-.11-2.57s-.08-1.75-.15-2.67-.18-2-.31-3.16-.25-2.49-.42-4-.29-3.29-.47-5.3-.36-4.36-.57-7a106,106,0,0,1-3.79,10.83q-2.18,5.31-4.82,11a4.23,4.23,0,0,1,1.71,1.11,2.89,2.89,0,0,1,.73,2.09,6.81,6.81,0,0,1-1.25,3.88,6.88,6.88,0,0,1-1.5,1.5,5.15,5.15,0,0,1-1.92.8,5.29,5.29,0,0,1-1.67.07,1.54,1.54,0,0,1-1.19-.9Z"/><path class="cls-1" d="M315.45,339a57.5,57.5,0,0,1-4.83,11.4,33.11,33.11,0,0,1-5.19,7,17.9,17.9,0,0,1-5.14,3.68,22,22,0,0,1-4.62,1.55,14.9,14.9,0,0,1-5.92.19,8.12,8.12,0,0,1-3.84-1.93,8.51,8.51,0,0,1-2.13-3.41,15.08,15.08,0,0,1-.62-4.34,34,34,0,0,1,.73-6.43c.52-2.53,1.07-5.11,1.66-7.76s1.12-5.19,1.61-7.64a30.87,30.87,0,0,0,.78-6.23q0-5.44-3.85-4.68a6.22,6.22,0,0,0-2.69,1.32,11.88,11.88,0,0,0-2.29,2.59,19.57,19.57,0,0,0-1.87,3.48,35,35,0,0,0-1.45,4.08l-7.22,35.55-15.31,3.06L268.68,295l15.73-5.27-5.71,27.92a25.78,25.78,0,0,1,3.37-3.73,20.54,20.54,0,0,1,3.32-2.48,17.64,17.64,0,0,1,3-1.44,20.56,20.56,0,0,1,2.7-.74,15.47,15.47,0,0,1,4.73-.27,7.57,7.57,0,0,1,3.73,1.38,7.19,7.19,0,0,1,2.5,3.24,13.84,13.84,0,0,1,.88,5.27,29.3,29.3,0,0,1-.42,4.7q-.36,2.52-.93,5.22t-1.25,5.34q-.61,2.67-1.19,5.12t-1,4.56a20.77,20.77,0,0,0-.36,3.55,4.65,4.65,0,0,0,.88,3c.62.71,1.75.9,3.38.57a7.61,7.61,0,0,0,3-1.28,10.15,10.15,0,0,0,2.33-2.38,18.54,18.54,0,0,0,1.87-3.34c.59-1.29,1.16-2.68,1.71-4.18l4.47-.89Z"/><path class="cls-4" d="M337.25,286.36a9.27,9.27,0,0,1-.68,3.46,11.14,11.14,0,0,1-1.86,3,12.58,12.58,0,0,1-2.7,2.31,10,10,0,0,1-3.27,1.27,8.32,8.32,0,0,1-3.33,0,7.13,7.13,0,0,1-2.64-1.23,6.51,6.51,0,0,1-1.82-2.29,8,8,0,0,1-.62-3.19,9.57,9.57,0,0,1,.62-3.4,11,11,0,0,1,1.82-3.06,11.14,11.14,0,0,1,2.64-2.4,9.8,9.8,0,0,1,3.33-1.34,7.65,7.65,0,0,1,3.27,0,6.58,6.58,0,0,1,2.7,1.33,6.29,6.29,0,0,1,1.86,2.33,7,7,0,0,1,.68,3.13Zm6.59,46.91a52.55,52.55,0,0,1-3.37,8.15,38.25,38.25,0,0,1-3.84,6.11,28.1,28.1,0,0,1-8.15,7.24,22,22,0,0,1-3.79,1.74,23,23,0,0,1-3.17.89,12.81,12.81,0,0,1-4.46.17,7.42,7.42,0,0,1-3.64-1.56,8.41,8.41,0,0,1-2.38-3.46,15.19,15.19,0,0,1-.89-5.59,27.2,27.2,0,0,1,.21-3.21c.14-1.2.35-2.5.62-3.91l7.22-35.55,15.31-3.06-7.63,37.65a12.7,12.7,0,0,0-.36,1.84c0,.56,0,1.12,0,1.67,0,1.49.34,2.46,1,2.91a4.77,4.77,0,0,0,3.27.18,8.55,8.55,0,0,0,3-1.28,13.54,13.54,0,0,0,2.75-2.52,18.77,18.77,0,0,0,2.23-3.41,24.35,24.35,0,0,0,1.61-4.11l4.46-.89Z"/><path class="cls-4" d="M330.65,377.61l16.83-83.12,15.31-3.06-1.71,8.34a27.45,27.45,0,0,1,5.34-4.34,20.67,20.67,0,0,1,7.06-2.71,14,14,0,0,1,5.09-.14,7.44,7.44,0,0,1,4.1,2,10.28,10.28,0,0,1,2.75,4.59,24.25,24.25,0,0,1,1,7.74,67.64,67.64,0,0,1-.52,7.89,58.42,58.42,0,0,1-1.66,8.69,55.63,55.63,0,0,1-3.17,8.68,35,35,0,0,1-4.83,7.76,30.24,30.24,0,0,1-6.9,6.16,26,26,0,0,1-9.08,3.58,17.46,17.46,0,0,1-3.53.39,9.85,9.85,0,0,1-2.6-.31,5.43,5.43,0,0,1-1.76-.84,8.15,8.15,0,0,1-1.15-1.22l-5.38,26.87-15.23,3.07ZM353,339.43a3,3,0,0,0,1.24,1.42,4,4,0,0,0,2.81.21,10.91,10.91,0,0,0,5-2.39,20,20,0,0,0,3.84-4.56,31.12,31.12,0,0,0,2.8-6,56.54,56.54,0,0,0,2.91-13,51.15,51.15,0,0,0,.36-5.68,15.1,15.1,0,0,0-.57-4.71,5.48,5.48,0,0,0-1.4-2.37,2.54,2.54,0,0,0-1.71-.74,5.92,5.92,0,0,0-1.66.07,8.65,8.65,0,0,0-3.84,2.12,15,15,0,0,0-3.48,4.58l-6.28,31Z"/><polygon class="cls-1" points="75.17 417.11 77.86 416.57 75.67 428.62 72.97 429.16 75.17 417.11 75.17 417.11"/><polygon class="cls-1" points="80.59 416.03 83.29 415.49 81.5 425.26 87.3 424.1 86.87 426.37 78.39 428.07 80.59 416.03 80.59 416.03"/><polygon class="cls-1" points="90.57 414.03 93.27 413.49 91.48 423.26 97.28 422.1 96.86 424.38 88.38 426.07 90.57 414.03 90.57 414.03"/><path class="cls-1" d="M100.38,422.79a3.11,3.11,0,0,1-1.27-2.73,7.9,7.9,0,0,1,.12-1.27l1.23-6.74,2.69-.54-1.22,6.69a4.68,4.68,0,0,0-.09,1,1.73,1.73,0,0,0,.57,1.46,2.24,2.24,0,0,0,1.68.18,3.31,3.31,0,0,0,1.94-1.12,5.59,5.59,0,0,0,1-2.55l1.22-6.69,2.63-.53-1.24,6.87q-1,5.39-5.87,6.36a4.52,4.52,0,0,1-3.43-.39Z"/><path class="cls-1" d="M112.79,421a5.45,5.45,0,0,1-2-.52l1.07-2.29a5.13,5.13,0,0,0,1.79.54,6.7,6.7,0,0,0,2-.1,4.22,4.22,0,0,0,1.75-.71,1.39,1.39,0,0,0,.63-1.12.67.67,0,0,0-.52-.68,7.11,7.11,0,0,0-1.64-.27,16.52,16.52,0,0,1-1.84-.26,2.65,2.65,0,0,1-1.25-.68,2.06,2.06,0,0,1-.53-1.52,3.93,3.93,0,0,1,.63-2.19,5.4,5.4,0,0,1,1.83-1.75,8.65,8.65,0,0,1,2.79-1,9.58,9.58,0,0,1,2.22-.18,4.78,4.78,0,0,1,1.79.38l-1,2.25a3.79,3.79,0,0,0-1.46-.37,6.12,6.12,0,0,0-1.69.1,4.17,4.17,0,0,0-1.79.76,1.45,1.45,0,0,0-.65,1.16.69.69,0,0,0,.28.59,1.8,1.8,0,0,0,.72.27c.29,0,.69.08,1.21.12a11.58,11.58,0,0,1,1.82.25,2.42,2.42,0,0,1,1.22.65,1.89,1.89,0,0,1,.52,1.44,4,4,0,0,1-.63,2.22,5.79,5.79,0,0,1-1.86,1.74,9,9,0,0,1-2.8,1.05,9.52,9.52,0,0,1-2.63.16Z"/><polygon class="cls-1" points="126.1 409.1 122.39 409.84 122.82 407.57 132.9 405.55 132.47 407.82 128.79 408.56 127 418.34 124.32 418.87 126.1 409.1 126.1 409.1"/><path class="cls-4" d="M142.76,410a6,6,0,0,1-2.41,2.12l2.05,3.17-2.82.57-1.85-2.88-2.29.46-.61,3.37-2.69.54,2.2-12.05,4.71-.94a4.74,4.74,0,0,1,3.35.27,2.62,2.62,0,0,1,1.21,2.41,5.22,5.22,0,0,1-.85,3Zm-2.58-.26a2.6,2.6,0,0,0,.72-1.91,1.17,1.17,0,0,0-.57-1.13,2.45,2.45,0,0,0-1.61-.09l-2.11.43-.77,4.18,2.28-.46a3.83,3.83,0,0,0,2.06-1Z"/><path class="cls-4" d="M152.49,410.75l-5.39,1.07-1.48,2.79-2.85.57,7.37-13.08,2.64-.53,3,11-2.68.54-.57-2.37ZM152,408.8l-1-4.27-2.69,5,3.71-.74Z"/><polygon class="cls-1" points="161.12 402.09 157.41 402.83 157.84 400.56 167.92 398.54 167.5 400.81 163.81 401.55 162.02 411.32 159.34 411.86 161.12 402.09 161.12 402.09"/><polygon class="cls-1" points="169.36 398.25 172.05 397.71 169.85 409.75 167.16 410.3 169.36 398.25 169.36 398.25"/><path class="cls-4" d="M175.57,408.18a3.47,3.47,0,0,1-2-1.38,4.38,4.38,0,0,1-.7-2.49,7.94,7.94,0,0,1,.85-3.72,8.57,8.57,0,0,1,2.51-3,8.86,8.86,0,0,1,3.72-1.66,6.35,6.35,0,0,1,3,0,3.48,3.48,0,0,1,2,1.38,4.38,4.38,0,0,1,.71,2.49,8,8,0,0,1-.88,3.74,8.34,8.34,0,0,1-2.5,3,8.89,8.89,0,0,1-3.71,1.66,6.31,6.31,0,0,1-3,0Zm5.44-3.36a5.35,5.35,0,0,0,1.46-1.94,5.64,5.64,0,0,0,.49-2.36,2.27,2.27,0,0,0-.85-1.94,2.84,2.84,0,0,0-2.34-.33,4.83,4.83,0,0,0-2.22,1.06,5.4,5.4,0,0,0-1.46,1.93,5.89,5.89,0,0,0-.49,2.37,2.35,2.35,0,0,0,.85,2,2.93,2.93,0,0,0,2.34.31,4.88,4.88,0,0,0,2.22-1.06Z"/><polygon class="cls-1" points="199.34 392.25 197.14 404.29 194.94 404.73 190.56 398.35 189.17 405.89 186.53 406.42 188.73 394.37 190.94 393.93 195.33 400.33 196.69 392.77 199.34 392.25 199.34 392.25"/><path class="cls-4" d="M214.07,398.28l1.05,1-1.7,2-1.07-1a8.24,8.24,0,0,1-3.86,2,6.11,6.11,0,0,1-2.15.08,2.73,2.73,0,0,1-1.46-.72,2.08,2.08,0,0,1-.53-1.45,3.59,3.59,0,0,1,.79-2.25,10,10,0,0,1,2.4-2.15,2.75,2.75,0,0,1-.75-1.84,3.45,3.45,0,0,1,.49-1.84,4.55,4.55,0,0,1,1.4-1.43,5.73,5.73,0,0,1,2-.79,3.41,3.41,0,0,1,2.25.18,1.63,1.63,0,0,1,.9,1.56,3.13,3.13,0,0,1-.71,2,8.94,8.94,0,0,1-2.14,1.87l1.74,1.6a9.58,9.58,0,0,0,.94-2l2,.26a13.59,13.59,0,0,1-1.53,3Zm-4.55-6.12a1.46,1.46,0,0,0-.37,1,1.25,1.25,0,0,0,.14.56,3.14,3.14,0,0,0,.48.61,6.85,6.85,0,0,0,1.45-1.15,1.52,1.52,0,0,0,.39-1,.57.57,0,0,0-.29-.53,1,1,0,0,0-.76-.08,1.85,1.85,0,0,0-1,.55ZM211,399l-2.32-2.16a6.33,6.33,0,0,0-1.37,1.19,1.78,1.78,0,0,0-.42,1.12,1,1,0,0,0,.49.89,2.18,2.18,0,0,0,1.4.08A5,5,0,0,0,211,399Z"/><path class="cls-4" d="M229.47,395.33l-5.38,1.08-1.48,2.78-2.86.57,7.37-13.08,2.64-.53,3,11-2.68.53-.57-2.37Zm-.46-1.95-1-4.27-2.69,5,3.71-.74Z"/><polygon class="cls-1" points="246.74 382.75 244.54 394.8 242.34 395.24 237.95 388.86 236.57 396.39 233.93 396.92 236.13 384.88 238.34 384.43 242.73 390.83 244.09 383.28 246.74 382.75 246.74 382.75"/><polygon class="cls-1" points="249.48 382.2 252.17 381.66 249.97 393.71 247.28 394.25 249.48 382.2 249.48 382.2"/><polygon class="cls-1" points="267.92 378.51 265.74 390.55 263.23 391.06 264.52 383.9 260.16 390.44 258.97 390.68 256.53 385.43 255.21 392.66 252.7 393.16 254.9 381.12 257.08 380.68 260.05 387.32 265.63 378.97 267.92 378.51 267.92 378.51"/><path class="cls-4" d="M276.69,385.87,271.3,387l-1.48,2.78-2.86.58,7.38-13.09,2.64-.52,3,11-2.68.53-.57-2.37Zm-.47-1.94-1-4.28-2.68,5,3.7-.74Z"/><polygon class="cls-1" points="285.31 377.21 281.61 377.96 282.04 375.68 292.12 373.66 291.69 375.94 288.01 376.68 286.22 386.45 283.54 386.99 285.31 377.21 285.31 377.21"/><polygon class="cls-1" points="293.56 373.38 296.25 372.84 294.05 384.88 291.36 385.42 293.56 373.38 293.56 373.38"/><path class="cls-4" d="M299.77,383.31a3.47,3.47,0,0,1-2-1.38,4.41,4.41,0,0,1-.71-2.5,8.13,8.13,0,0,1,.86-3.72,8.7,8.7,0,0,1,2.5-3,9,9,0,0,1,3.73-1.66,6.31,6.31,0,0,1,3,0,3.38,3.38,0,0,1,2,1.38,4.38,4.38,0,0,1,.71,2.49,8,8,0,0,1-.88,3.74,8.53,8.53,0,0,1-2.5,3,8.87,8.87,0,0,1-3.71,1.65,6.32,6.32,0,0,1-3,0Zm5.44-3.37a5.32,5.32,0,0,0,1.46-1.93,5.66,5.66,0,0,0,.49-2.37,2.25,2.25,0,0,0-.85-1.93,2.85,2.85,0,0,0-2.34-.33,4.79,4.79,0,0,0-2.22,1.06,5.32,5.32,0,0,0-1.46,1.93,5.66,5.66,0,0,0-.49,2.37,2.31,2.31,0,0,0,.85,1.95A2.89,2.89,0,0,0,303,381a4.79,4.79,0,0,0,2.22-1.06Z"/><polygon class="cls-1" points="323.54 367.37 321.34 379.42 319.14 379.86 314.75 373.48 313.37 381.01 310.73 381.54 312.93 369.5 315.14 369.05 319.53 375.45 320.89 367.9 323.54 367.37 323.54 367.37"/><path class="cls-1" d="M201.67,264.52c.17,1.94-3.07-42.71-3.07-42.71h.06s5.66,40.88,5.8,42.39c.15,1.79,3.07,42.74,3.07,42.74h-.06s-5.95-44.15-5.8-42.41Z"/><path class="cls-1" d="M144,208.52c.13,1.24-2.17-27.47-2.17-27.47h.06s4.78,26.08,4.88,27.05c.12,1.15,2.17,27.48,2.17,27.48h-.07s-5-28.18-4.87-27.06Z"/><path class="cls-1" d="M236.87,219.93c.06.67-.81-14.54-.81-14.54h.06s3.06,14,3.1,14.5.81,14.55.81,14.55H240s-3.16-15.1-3.1-14.51Z"/><path class="cls-1" d="M133.79,247.09C134,249,130,204.44,130,204.44H130s6.37,40.78,6.53,42.28c.19,1.79,3.82,42.68,3.82,42.68h-.06s-6.72-44-6.54-42.31Z"/><path class="cls-1" d="M122.47,226.14c.06.66-.8-14.54-.8-14.54h.06s3,14,3.1,14.49.8,14.56.8,14.56h0s-3.16-15.1-3.11-14.51Z"/><path class="cls-1" d="M178.33,218.17l6.57,97.73-14.06-98.29a40,40,0,0,0,6.75.57Z"/><path class="cls-1" d="M186.21,217.24,192,289.49l-1.87-12.85L181.79,218a39.17,39.17,0,0,0,4.42-.72Z"/><path class="cls-1" d="M193.89,214.56,198,275l-8.4-58.7a33.48,33.48,0,0,0,4.33-1.76Z"/><path class="cls-2" d="M189,186.3c0,.66,0-14.57,0-14.57h.06s2.32,14.13,2.34,14.64,0,14.58,0,14.58h-.05S189,185.7,189,186.3Z"/><path class="cls-2" d="M169.45,112a12.25,12.25,0,0,0,3.23,8.31A12.28,12.28,0,1,1,182,99.68h-.28A12.27,12.27,0,0,0,169.45,112Z"/><path class="cls-2" d="M164.41,190.84q1.32,7.77,3.87,19.66a21.66,21.66,0,0,0,3.18.36c-1.14-4.63-3.32-16.4-3.67-19.88-1.31-.07-2.32,0-3.38-.14Z"/><path class="cls-2" d="M180.85,199.8c0,.66,0-14.57,0-14.57h.06s2.32,14.12,2.34,14.64,0,14.57,0,14.57h-.06s-2.36-15.25-2.34-14.65Z"/></g></g></svg>