<svg xmlns="http://www.w3.org/2000/svg" viewBox="0 0 536.51 604.79"><defs><style>.cls-1{fill:none;}.cls-2,.cls-5{fill:#231f20;}.cls-3,.cls-4{fill:#fff;}.cls-4,.cls-5{fill-rule:evenodd;}</style></defs><title>spiceship-bg</title><g id="Layer_2" data-name="Layer 2"><g id="Layer_1-2" data-name="Layer 1"><rect class="cls-1" width="536.51" height="604.79"/><path class="cls-2" d="M210.34,228.59q-34.5,27.45-15,66.21c3.38-24.7,13.69-31.71,26.52-36.47-5.4-7.92-8.39-18-11.49-29.74Z"/><path class="cls-2" d="M210,189.85c-5.86-55.73,16.5-103.61,24.82-104.64,7.67-.95,40.17,41.46,46,97.19,3.6,34.21-1.35,65.29-8.91,84.53a120.41,120.41,0,0,1-36.68,3.86C224,253.52,213.6,224.05,210,189.85Z"/><path class="cls-3" d="M233.19,195a15.05,15.05,0,1,0,13.4-16.55A15.06,15.06,0,0,0,233.19,195Zm-4.67.56a19.83,19.83,0,1,1,21.8,17.66,19.84,19.84,0,0,1-21.8-17.66Z"/><path class="cls-3" d="M217,134.52c4.44-23.87,17.31-61,37.44-14.73C232.29,93.33,228.55,114.4,223,133.6l-6,.92Z"/><path class="cls-3" d="M220.11,151.32c-.94,37.59,5.25,87.25,15.3,114-16-25.76-26.21-85.06-21.66-113l6.36-1Z"/><path class="cls-2" d="M287.45,219.42q40.43,17.6,31.65,60.07c-9.66-23-22.72-27.07-36.35-28.35a77.17,77.17,0,0,0,4.7-31.72Z"/><path class="cls-3" d="M190.51,267.45c.3-4,3.9-20.35,18.84-34.38.66,11.64,8.93,24.53,8.93,24.53-8.69-3.63-27,5.25-27.77,9.85Z"/><path class="cls-2" d="M138.17,398.66a17.31,17.31,0,0,1-.75-3.75,20.7,20.7,0,0,1,24.76-22.41,31.34,31.34,0,0,1,28-32.31c9.5-1,20,1.36,26.37,7.46,13.41-6.24,26.39.31,28,13.1l-.74,2.56c-5.18-15.09-23.72-12.87-25.88-8.67a31.28,31.28,0,0,0-24.86-8.45c-16.5,1.74-28.15,15.93-27.54,32.27-13.79-5-25.7,10.18-24.5,21.53a16.7,16.7,0,0,0,.74,3.76l-3.61-5.09Z"/><path class="cls-2" d="M236,274.27a113.43,113.43,0,0,0,35.61-3.74l-.4,23.32a51,51,0,0,1-30,3.15L236,274.27Z"/><path class="cls-2" d="M207.23,264.63a6,6,0,0,1,4-3l4.1,61h-.07l-8.07-58.05Z"/><polygon class="cls-2" points="288.93 251.54 293 251.11 295.42 293.76 295.36 293.76 288.93 251.54 288.93 251.54"/><polygon class="cls-2" points="296.88 248.47 300.95 248.04 309.33 347.38 309.27 347.39 296.88 248.47 296.88 248.47"/><polygon class="cls-2" points="303.35 243.86 307.42 243.43 309.84 286.08 309.78 286.08 303.35 243.86 303.35 243.86"/><path class="cls-3" d="M241,218.62l3.53,52.26H243l-7.7-54.35.41,0a28.68,28.68,0,0,0,5.26,2.13Z"/><path class="cls-3" d="M252.4,219.56l3.64,54.1H256l-7.65-53.91a31.59,31.59,0,0,0,3.62-.15l.45-.05Z"/><path class="cls-3" d="M262.61,216.3l1.12,25h0l-3.9-23.71a30.38,30.38,0,0,0,2.82-1.34Z"/><path class="cls-3" d="M228.37,106.86l.29,0a19.91,19.91,0,0,0,3.7,1.5l2,29.49-1.55.17-4.42-31.13Z"/><path class="cls-3" d="M237.32,104.32l.2,0a14.75,14.75,0,0,0,2.57,1l2.33,34.6h0l-5.06-35.63Z"/><path class="cls-3" d="M244.62,107.36l.2,0a16.15,16.15,0,0,0,2.51.54l.93,21.26h0l-3.6-21.77Z"/><path class="cls-3" d="M211.24,137.79c9.1-.5,18.53-1.25,28.18-2.27,10.17-1.06,20.05-2.37,29.5-3.87l2.16,3c-10,1.63-20.49,3-31.32,4.18-10.33,1.08-20.41,1.86-30.09,2.36l1.57-3.42Z"/><path class="cls-3" d="M231.15,138.13h.12a9.85,9.85,0,0,0,1.61.65l1.45,21.64h0l-3.16-22.29Z"/><path class="cls-3" d="M240.62,136.25h.13a8,8,0,0,0,1.63.92l2.22,28.94h0l-4-29.86Z"/><path class="cls-4" d="M253.82,165.14h-.13a8.56,8.56,0,0,0-1.61-.71l-1.61-23.08h0l3.32,23.79Z"/><path class="cls-3" d="M317,254.15c-1.12-3.85-8-19.1-25.57-29.71a30.15,30.15,0,0,1-1,8.76c14.24,2.11,24.87,16.61,26.58,21Z"/><path class="cls-2" d="M315,347.55a15.26,15.26,0,0,1,14.36,4.61A28.75,28.75,0,0,1,344.53,344c14.57-2.72,28.74,6.83,29.19,21.69a22.89,22.89,0,0,1-2.23,10.37,27.83,27.83,0,0,0-.13-4,24.34,24.34,0,0,0-29.19-21.69A28.72,28.72,0,0,0,327,358.56,15.41,15.41,0,0,0,312.65,354a18,18,0,0,0-9.84,5.44S305,349.5,315,347.55Z"/><path class="cls-2" d="M130.2,429.84a14.28,14.28,0,0,1-.62,4.23,12.82,12.82,0,0,1-1.61,3.49,9.7,9.7,0,0,1-2.54,2.53,8.73,8.73,0,0,1-3.27,1.38,7.6,7.6,0,0,1-3.69-.09,6.59,6.59,0,0,1-2.8-1.93,14.07,14.07,0,0,0,3.16-4.48,13.13,13.13,0,0,0,1.2-5.43c0-2.28-.68-4-2-5s-3.2-1.39-5.55-.92a11.31,11.31,0,0,0-4,1.62,12.17,12.17,0,0,0-3.06,2.85,13.37,13.37,0,0,0-2,3.77,14.42,14.42,0,0,0-.68,4.44,11.77,11.77,0,0,0,1.72,6.3,26.51,26.51,0,0,0,4.31,5.27c1.73,1.66,3.59,3.32,5.6,5a45.24,45.24,0,0,1,5.61,5.47,27.39,27.39,0,0,1,4.31,6.72,20.43,20.43,0,0,1,1.71,8.64,24.77,24.77,0,0,1-2.18,10.14,31.41,31.41,0,0,1-6.07,8.9,37.73,37.73,0,0,1-9.09,6.85,38.15,38.15,0,0,1-11.26,4.12,29.08,29.08,0,0,1-9.24.5,16.84,16.84,0,0,1-7.06-2.33,13.06,13.06,0,0,1-4.52-5A15.73,15.73,0,0,1,75,489.57a20.44,20.44,0,0,1,1.15-6.82,21.27,21.27,0,0,1,3.11-5.92A19.27,19.27,0,0,1,84,472.31a15.72,15.72,0,0,1,5.76-2.45,9.24,9.24,0,0,1,6.28.62,6.15,6.15,0,0,1,3.17,4.5,17.51,17.51,0,0,0-5,1.79,14.22,14.22,0,0,0-3.79,2.94,12.31,12.31,0,0,0-3.27,8.54c0,3.11.89,5.41,2.7,6.88s4.29,1.84,7.37,1.23a16,16,0,0,0,5.19-2,16.64,16.64,0,0,0,6.8-8.36,15.74,15.74,0,0,0,1-5.5,14.34,14.34,0,0,0-1-5.35,18.66,18.66,0,0,0-2.55-4.68,35.16,35.16,0,0,0-3.63-4.26q-2-2-4.15-4.05c-1.42-1.38-2.81-2.76-4.15-4.15A36.89,36.89,0,0,1,91,453.62a22.78,22.78,0,0,1-2.59-4.93,16.82,16.82,0,0,1-.94-5.74,19.27,19.27,0,0,1,1.77-8.08,25.45,25.45,0,0,1,5-7.18,31.52,31.52,0,0,1,7.58-5.56,33.58,33.58,0,0,1,9.5-3.41,25.19,25.19,0,0,1,7.78-.46,14,14,0,0,1,5.92,1.82,9.82,9.82,0,0,1,3.84,3.91,12,12,0,0,1,1.35,5.85Z"/><path class="cls-5" d="M123.29,519.59l16.83-83.42,15.31-3.07-1.71,8.34a27.82,27.82,0,0,1,5.34-4.34,20.67,20.67,0,0,1,7.06-2.71,13.94,13.94,0,0,1,5.09-.13,7.3,7.3,0,0,1,4.1,2,10.16,10.16,0,0,1,2.75,4.59,24.14,24.14,0,0,1,1,7.73,65.52,65.52,0,0,1-.52,7.89,58.42,58.42,0,0,1-1.66,8.69,55.63,55.63,0,0,1-3.17,8.68,35.21,35.21,0,0,1-4.82,7.77,30.25,30.25,0,0,1-6.91,6.15,25.85,25.85,0,0,1-9.08,3.58,18.31,18.31,0,0,1-3.53.4,10.29,10.29,0,0,1-2.6-.31,5.87,5.87,0,0,1-1.76-.84,8.07,8.07,0,0,1-1.14-1.23l-5.39,27.18-15.23,3.07Zm22.33-38.48a3,3,0,0,0,1.24,1.41,4,4,0,0,0,2.81.22,11,11,0,0,0,5-2.4,20,20,0,0,0,3.84-4.56,31.76,31.76,0,0,0,2.81-6,54.66,54.66,0,0,0,1.86-6.55,55.34,55.34,0,0,0,1-6.43,54.1,54.1,0,0,0,.37-5.68,15.17,15.17,0,0,0-.58-4.72,5.28,5.28,0,0,0-1.4-2.36,2.51,2.51,0,0,0-1.71-.75,6.32,6.32,0,0,0-1.66.07,8.65,8.65,0,0,0-3.84,2.12,15.07,15.07,0,0,0-3.48,4.59l-6.28,31Z"/><path class="cls-5" d="M208,412.41a9.26,9.26,0,0,1-.67,3.46,11.18,11.18,0,0,1-1.87,3,12.12,12.12,0,0,1-2.7,2.31,9.86,9.86,0,0,1-3.27,1.27,8.27,8.27,0,0,1-3.32,0,7.1,7.1,0,0,1-2.65-1.23,6.63,6.63,0,0,1-1.82-2.29,8,8,0,0,1-.62-3.19,9.57,9.57,0,0,1,.62-3.4,11.22,11.22,0,0,1,1.82-3.06,11,11,0,0,1,2.65-2.4,9.75,9.75,0,0,1,3.32-1.34,7.49,7.49,0,0,1,3.27,0,6.46,6.46,0,0,1,2.7,1.33,6.23,6.23,0,0,1,1.87,2.33,7,7,0,0,1,.67,3.13Zm6.59,46.91a51.59,51.59,0,0,1-3.37,8.15,38.25,38.25,0,0,1-3.84,6.11,28.1,28.1,0,0,1-8.15,7.24,22,22,0,0,1-3.79,1.74,23,23,0,0,1-3.17.89,12.81,12.81,0,0,1-4.46.17,7.39,7.39,0,0,1-3.63-1.56,8.42,8.42,0,0,1-2.39-3.46,15.21,15.21,0,0,1-.88-5.59,29.35,29.35,0,0,1,.2-3.21c.14-1.2.35-2.51.63-3.91L189,430.34l15.32-3.06-7.63,37.65a11.53,11.53,0,0,0-.37,1.84c0,.56-.05,1.12-.05,1.67,0,1.49.35,2.46,1,2.91a4.75,4.75,0,0,0,3.27.18,8.5,8.5,0,0,0,3-1.28,13.86,13.86,0,0,0,2.75-2.52,19.12,19.12,0,0,0,2.23-3.41,24.35,24.35,0,0,0,1.61-4.11l4.46-.89Z"/><path class="cls-2" d="M254.57,451.32a77.64,77.64,0,0,1-5.13,8.3A50.87,50.87,0,0,1,243,467.2a42.41,42.41,0,0,1-8,6.06,31.07,31.07,0,0,1-9.6,3.58,22.91,22.91,0,0,1-6.85.44,10.88,10.88,0,0,1-5.24-2,9.71,9.71,0,0,1-3.33-4.52,20.47,20.47,0,0,1-1.19-7.5,49.6,49.6,0,0,1,.62-7.18,62,62,0,0,1,2-8.65,64.53,64.53,0,0,1,3.59-9,41.3,41.3,0,0,1,5.4-8.29,34.3,34.3,0,0,1,7.42-6.58,26.42,26.42,0,0,1,9.6-3.89,15.84,15.84,0,0,1,5.81-.28,7.36,7.36,0,0,1,3.64,1.51,5.57,5.57,0,0,1,1.87,2.74,12,12,0,0,1,.52,3.42,12.19,12.19,0,0,1-.47,3.52,9.18,9.18,0,0,1-1.19,2.63,6.56,6.56,0,0,1-1.82,1.82,6.15,6.15,0,0,1-2.18.9,6.05,6.05,0,0,1-3.74-.5,19.88,19.88,0,0,0,1.3-6.54,5.24,5.24,0,0,0-.73-3,2,2,0,0,0-2.23-.75,6.32,6.32,0,0,0-3.32,2.17,25.15,25.15,0,0,0-3.22,4.64,50.47,50.47,0,0,0-2.8,6.27q-1.31,3.48-2.29,7.16t-1.5,7.25a44.43,44.43,0,0,0-.52,6.49,16.3,16.3,0,0,0,.47,4.37,5.07,5.07,0,0,0,1.45,2.41,4.29,4.29,0,0,0,2.39.92,13.64,13.64,0,0,0,3.37-.31,21.13,21.13,0,0,0,5.71-2,25.7,25.7,0,0,0,4.83-3.25,34.65,34.65,0,0,0,4.2-4.27q2-2.37,4.05-5l3.63-.73Z"/><path class="cls-5" d="M295.37,443.16a77.64,77.64,0,0,1-5.13,8.3,50.87,50.87,0,0,1-6.49,7.58,42.41,42.41,0,0,1-8,6.06,31.07,31.07,0,0,1-9.6,3.58,22.91,22.91,0,0,1-6.85.44,11,11,0,0,1-5.24-2,9.79,9.79,0,0,1-3.33-4.53,20.43,20.43,0,0,1-1.19-7.5,49.6,49.6,0,0,1,.62-7.18,62.65,62.65,0,0,1,2-8.6,57.67,57.67,0,0,1,3.59-9,41.59,41.59,0,0,1,5.4-8.29,32.44,32.44,0,0,1,7.42-6.63,27,27,0,0,1,9.71-3.91,15.45,15.45,0,0,1,5.81-.28,7.07,7.07,0,0,1,3.58,1.52,5.56,5.56,0,0,1,1.82,2.9,13.26,13.26,0,0,1,.52,3.69,21.36,21.36,0,0,1-2,9,30.13,30.13,0,0,1-5.45,8,36.5,36.5,0,0,1-7.78,6.34,34.49,34.49,0,0,1-9.19,4c-.07.81-.14,1.59-.21,2.33s-.05,1.36-.05,2a16.78,16.78,0,0,0,.46,4.37,5.16,5.16,0,0,0,1.46,2.41,4.29,4.29,0,0,0,2.39.92,13.64,13.64,0,0,0,3.37-.31,21.13,21.13,0,0,0,5.71-2,25.7,25.7,0,0,0,4.83-3.25,34.66,34.66,0,0,0,4.2-4.27q2-2.37,4.05-5l3.63-.73Zm-29-1.72a17.43,17.43,0,0,0,5.81-2.88,23.75,23.75,0,0,0,4.93-4.88,25.21,25.21,0,0,0,3.38-6.17,18.65,18.65,0,0,0,1.29-6.7,6.65,6.65,0,0,0-.57-3.05,1.7,1.7,0,0,0-2.07-.78,7.35,7.35,0,0,0-4,2.77,29.49,29.49,0,0,0-3.63,5.76,55.84,55.84,0,0,0-3.07,7.68,74.84,74.84,0,0,0-2.07,8.25Z"/><path class="cls-5" d="M336.8,434.88a73.24,73.24,0,0,1-8.36,9.66q-4.15,3.94-7.89,6.88a22.88,22.88,0,0,1-3.74,3.75,31.07,31.07,0,0,1-4.25,2.83,30.15,30.15,0,0,1-4.47,1.93,29.41,29.41,0,0,1-4.25,1.21,17.64,17.64,0,0,1-7,.2,11.71,11.71,0,0,1-4.83-2.2,9.38,9.38,0,0,1-2.8-3.8,12.16,12.16,0,0,1-.94-4.69,12,12,0,0,1,.52-3.53,14.43,14.43,0,0,1,1.25-3.11,13.58,13.58,0,0,1,1.76-2.48,12.55,12.55,0,0,1,2.13-1.88,161.4,161.4,0,0,0,7.53-17.28q3.06-8.44,5.55-16.84l15.73-5.22q.32,6.84.57,11.87t.57,8.66c.18,2.43.33,4.49.47,6.19s.26,3.22.36,4.55.23,2.48.26,3.58.11,2.18.11,3.35a21.14,21.14,0,0,1-.11,2.2,8.74,8.74,0,0,1-.31,1.93q2.34-1.81,4.21-3.48t3.42-3.39l4.47-.89ZM294,447.28q0,3.75,1.46,5.32t5,.81a14.73,14.73,0,0,0,3.43-1.15,10.74,10.74,0,0,0,3-2.26,11.15,11.15,0,0,0,2.07-3.47,13.44,13.44,0,0,0,.78-4.83c0-.9,0-1.76-.1-2.58s-.09-1.74-.16-2.66-.17-2-.31-3.16-.24-2.49-.41-4-.3-3.29-.47-5.3-.37-4.36-.57-7.05a112.92,112.92,0,0,1-3.79,10.83c-1.46,3.54-3.06,7.2-4.83,11a4,4,0,0,1,1.71,1.11,2.83,2.83,0,0,1,.73,2.09,6.49,6.49,0,0,1-.31,2,6.87,6.87,0,0,1-.94,1.9,6.67,6.67,0,0,1-1.5,1.5,5.32,5.32,0,0,1-1.92.8,5.23,5.23,0,0,1-1.66.07,1.55,1.55,0,0,1-1.2-.91Z"/><path class="cls-2" d="M390.47,424.14a57,57,0,0,1-4.83,11.4,32.53,32.53,0,0,1-5.19,7,17.9,17.9,0,0,1-5.14,3.68,21.92,21.92,0,0,1-4.62,1.54,14.87,14.87,0,0,1-5.91.2,8.2,8.2,0,0,1-3.85-1.93,8.52,8.52,0,0,1-2.12-3.42,14.69,14.69,0,0,1-.63-4.34,34.61,34.61,0,0,1,.73-6.42c.52-2.53,1.07-5.11,1.66-7.76s1.13-5.19,1.61-7.64a30.87,30.87,0,0,0,.78-6.23q0-5.44-3.84-4.68a6,6,0,0,0-2.7,1.32,12.08,12.08,0,0,0-2.29,2.58,19.38,19.38,0,0,0-1.86,3.49,35,35,0,0,0-1.46,4.08l-7.21,35.55-15.32,3.06,15.42-75.39L359.43,375l-5.71,27.92a25.83,25.83,0,0,1,3.37-3.73,21.3,21.3,0,0,1,3.33-2.49,17.19,17.19,0,0,1,3-1.43,21.43,21.43,0,0,1,2.7-.75,16,16,0,0,1,4.72-.27,7.64,7.64,0,0,1,3.74,1.38,7.36,7.36,0,0,1,2.49,3.24,13.74,13.74,0,0,1,.88,5.28,30.51,30.51,0,0,1-.41,4.7q-.37,2.52-.94,5.22c-.38,1.78-.8,3.55-1.24,5.34s-.82,3.48-1.2,5.12-.71,3.15-1,4.55a20.1,20.1,0,0,0-.37,3.56,4.72,4.72,0,0,0,.88,3c.63.7,1.75.89,3.38.57a7.61,7.61,0,0,0,3-1.28,10.44,10.44,0,0,0,2.34-2.39,18.77,18.77,0,0,0,1.86-3.33c.59-1.29,1.16-2.69,1.72-4.18l4.46-.9Z"/><path class="cls-5" d="M412.27,371.56a9.26,9.26,0,0,1-.67,3.46,11.18,11.18,0,0,1-1.87,3,11.82,11.82,0,0,1-2.7,2.3,9.67,9.67,0,0,1-3.27,1.28,8.27,8.27,0,0,1-3.32,0,7.26,7.26,0,0,1-2.65-1.23,6.63,6.63,0,0,1-1.82-2.29,8,8,0,0,1-.62-3.19,9.57,9.57,0,0,1,.62-3.4,11.22,11.22,0,0,1,1.82-3.06,11,11,0,0,1,2.65-2.4,9.75,9.75,0,0,1,3.32-1.34,7.49,7.49,0,0,1,3.27,0,6.35,6.35,0,0,1,2.7,1.33,6.23,6.23,0,0,1,1.87,2.33,7,7,0,0,1,.67,3.13Zm6.59,46.91a51.59,51.59,0,0,1-3.37,8.15,38.25,38.25,0,0,1-3.84,6.11A28.1,28.1,0,0,1,403.5,440a23.67,23.67,0,0,1-3.79,1.74,24.51,24.51,0,0,1-3.17.89,12.81,12.81,0,0,1-4.46.17,7.44,7.44,0,0,1-3.63-1.56,8.46,8.46,0,0,1-2.39-3.47,15.11,15.11,0,0,1-.88-5.58,29.35,29.35,0,0,1,.2-3.21c.14-1.2.35-2.51.63-3.91l7.21-35.55,15.32-3.06-7.64,37.65a12.7,12.7,0,0,0-.36,1.84c0,.56-.05,1.12-.05,1.67,0,1.49.34,2.46,1,2.91a4.77,4.77,0,0,0,3.27.17,8.3,8.3,0,0,0,3-1.27,13.62,13.62,0,0,0,2.75-2.53,18.68,18.68,0,0,0,2.23-3.4,24.35,24.35,0,0,0,1.61-4.11l4.46-.89Z"/><path class="cls-5" d="M405.68,462.81l16.82-83.12,15.31-3.06L436.1,385a28.84,28.84,0,0,1,5.34-4.34,21.09,21.09,0,0,1,7.06-2.71,13.94,13.94,0,0,1,5.09-.13,7.44,7.44,0,0,1,4.1,2,10.28,10.28,0,0,1,2.75,4.59,24.25,24.25,0,0,1,1,7.74A65.77,65.77,0,0,1,461,400a57.4,57.4,0,0,1-1.66,8.69,56.51,56.51,0,0,1-3.16,8.67,35.63,35.63,0,0,1-4.83,7.77,30.52,30.52,0,0,1-6.91,6.16,26,26,0,0,1-9.08,3.58,17.46,17.46,0,0,1-3.53.39,9.91,9.91,0,0,1-2.6-.31,5.87,5.87,0,0,1-1.76-.84,7.24,7.24,0,0,1-1.14-1.23l-5.39,26.88-15.22,3.07ZM428,424.63a2.88,2.88,0,0,0,1.25,1.41,4,4,0,0,0,2.8.22,10.82,10.82,0,0,0,5-2.4,19.46,19.46,0,0,0,3.84-4.55,32.06,32.06,0,0,0,2.81-6,56.63,56.63,0,0,0,1.87-6.55,57.64,57.64,0,0,0,1-6.44,49,49,0,0,0,.37-5.68,15.1,15.1,0,0,0-.57-4.71A5.39,5.39,0,0,0,445,387.6a2.58,2.58,0,0,0-1.71-.75,6.29,6.29,0,0,0-1.66.08,8.72,8.72,0,0,0-3.84,2.11,15.07,15.07,0,0,0-3.48,4.59l-6.28,31Z"/><polygon class="cls-2" points="150.19 502.31 152.89 501.77 150.69 513.82 148 514.36 150.19 502.31 150.19 502.31"/><polygon class="cls-2" points="155.62 501.22 158.31 500.68 156.52 510.46 162.32 509.3 161.9 511.57 153.42 513.27 155.62 501.22 155.62 501.22"/><polygon class="cls-2" points="165.6 499.23 168.29 498.69 166.5 508.46 172.3 507.3 171.88 509.57 163.4 511.27 165.6 499.23 165.6 499.23"/><path class="cls-2" d="M175.41,508a3.09,3.09,0,0,1-1.27-2.73,6.07,6.07,0,0,1,.12-1.27l1.22-6.74,2.69-.54L177,503.4a6.48,6.48,0,0,0-.09,1,1.73,1.73,0,0,0,.58,1.46,2.17,2.17,0,0,0,1.67.17,3.22,3.22,0,0,0,1.94-1.11,5.64,5.64,0,0,0,1-2.55l1.22-6.69,2.63-.53L184.7,502q-1,5.4-5.86,6.37a4.5,4.5,0,0,1-3.43-.39Z"/><path class="cls-2" d="M187.81,506.22a5.3,5.3,0,0,1-2-.53l1.07-2.28a5,5,0,0,0,1.8.53,6.34,6.34,0,0,0,2-.09,4.36,4.36,0,0,0,1.75-.71,1.38,1.38,0,0,0,.63-1.13.65.65,0,0,0-.52-.67,7.11,7.11,0,0,0-1.64-.27,16.88,16.88,0,0,1-1.84-.26,2.79,2.79,0,0,1-1.25-.68,2.12,2.12,0,0,1-.53-1.52,4.07,4.07,0,0,1,.63-2.2,5.51,5.51,0,0,1,1.84-1.74,9.41,9.41,0,0,1,5-1.22,4.94,4.94,0,0,1,1.79.37l-1,2.26a3.66,3.66,0,0,0-1.46-.37,5.72,5.72,0,0,0-1.69.1,4.15,4.15,0,0,0-1.8.76,1.45,1.45,0,0,0-.65,1.16.7.7,0,0,0,.29.59,1.76,1.76,0,0,0,.71.27c.29,0,.69.08,1.21.12A10.79,10.79,0,0,1,194,499a2.39,2.39,0,0,1,1.21.65,1.89,1.89,0,0,1,.53,1.44,4,4,0,0,1-.64,2.21,5.71,5.71,0,0,1-1.86,1.75,8.62,8.62,0,0,1-2.8,1,9.15,9.15,0,0,1-2.63.17Z"/><polygon class="cls-2" points="201.12 494.3 197.42 495.04 197.84 492.77 207.92 490.75 207.5 493.02 203.81 493.76 202.02 503.54 199.34 504.07 201.12 494.3 201.12 494.3"/><path class="cls-5" d="M217.79,495.16a6.12,6.12,0,0,1-2.42,2.12l2.06,3.17-2.83.57-1.85-2.88-2.28.45-.61,3.38-2.7.54,2.2-12.05,4.71-.94a4.74,4.74,0,0,1,3.35.27,2.59,2.59,0,0,1,1.21,2.41,5.21,5.21,0,0,1-.84,3Zm-2.59-.27a2.61,2.61,0,0,0,.73-1.9,1.18,1.18,0,0,0-.58-1.13,2.42,2.42,0,0,0-1.6-.09l-2.12.42-.77,4.19,2.28-.46a3.77,3.77,0,0,0,2.06-1Z"/><path class="cls-5" d="M227.52,495.94,222.13,497l-1.48,2.79-2.86.57,7.37-13.08,2.64-.53,3,11-2.67.54-.57-2.38Zm-.47-1.94-1-4.28-2.68,5,3.7-.74Z"/><polygon class="cls-2" points="236.14 487.29 232.44 488.03 232.86 485.75 242.94 483.74 242.52 486.01 238.83 486.75 237.04 496.52 234.37 497.06 236.14 487.29 236.14 487.29"/><polygon class="cls-2" points="244.38 483.45 247.07 482.91 244.88 494.95 242.18 495.49 244.38 483.45 244.38 483.45"/><path class="cls-5" d="M250.59,493.38a3.5,3.5,0,0,1-2-1.38,4.39,4.39,0,0,1-.7-2.5,8,8,0,0,1,.86-3.72,8.6,8.6,0,0,1,2.5-3,8.9,8.9,0,0,1,3.73-1.66,6.31,6.31,0,0,1,3,0,3.5,3.5,0,0,1,2,1.38,4.38,4.38,0,0,1,.7,2.49,8.12,8.12,0,0,1-.87,3.74,8.56,8.56,0,0,1-2.51,3,8.87,8.87,0,0,1-3.71,1.65,6.2,6.2,0,0,1-3,0ZM256,490a5.33,5.33,0,0,0,1.45-1.94,5.51,5.51,0,0,0,.49-2.37,2.26,2.26,0,0,0-.85-1.93,2.82,2.82,0,0,0-2.33-.33,4.87,4.87,0,0,0-2.23,1.06,5.29,5.29,0,0,0-1.45,1.93,5.51,5.51,0,0,0-.49,2.37,2.31,2.31,0,0,0,.85,1.95,2.83,2.83,0,0,0,2.33.31A5,5,0,0,0,256,490Z"/><polygon class="cls-2" points="274.36 477.44 272.16 489.49 269.96 489.93 265.58 483.55 264.2 491.08 261.55 491.61 263.75 479.57 265.96 479.12 270.35 485.52 271.72 477.97 274.36 477.44 274.36 477.44"/><path class="cls-5" d="M289.09,483.48l1.06,1-1.71,2-1.07-1a8.1,8.1,0,0,1-3.85,2,6.14,6.14,0,0,1-2.15.09,2.76,2.76,0,0,1-1.47-.72,2.13,2.13,0,0,1-.53-1.45,3.65,3.65,0,0,1,.79-2.25,10.38,10.38,0,0,1,2.4-2.16,2.76,2.76,0,0,1-.75-1.84,3.51,3.51,0,0,1,.5-1.84,4.48,4.48,0,0,1,1.39-1.42,5.62,5.62,0,0,1,2-.79,3.32,3.32,0,0,1,2.26.18,1.62,1.62,0,0,1,.89,1.56,3.07,3.07,0,0,1-.71,2,9.07,9.07,0,0,1-2.13,1.87l1.74,1.59a9.76,9.76,0,0,0,.94-2l2,.25a13.45,13.45,0,0,1-1.53,3Zm-4.55-6.12a1.46,1.46,0,0,0-.37,1,1.29,1.29,0,0,0,.14.56,3.16,3.16,0,0,0,.49.61,7,7,0,0,0,1.44-1.15,1.52,1.52,0,0,0,.39-1,.6.6,0,0,0-.29-.54,1.08,1.08,0,0,0-.76-.08,2,2,0,0,0-1,.56Zm1.51,6.84-2.32-2.15a6.52,6.52,0,0,0-1.36,1.18,1.71,1.71,0,0,0-.42,1.13.94.94,0,0,0,.49.88,2.07,2.07,0,0,0,1.39.09,5,5,0,0,0,2.22-1.13Z"/><path class="cls-5" d="M304.5,480.53l-5.39,1.08-1.48,2.78-2.86.57,7.37-13.08,2.65-.53,2.95,11-2.67.54-.57-2.37Zm-.47-1.95-1-4.27-2.68,5,3.7-.74Z"/><polygon class="cls-2" points="321.76 467.95 319.56 480 317.36 480.44 312.98 474.05 311.6 481.59 308.95 482.12 311.15 470.07 313.36 469.63 317.75 476.03 319.12 468.48 321.76 467.95 321.76 467.95"/><polygon class="cls-2" points="324.5 467.4 327.2 466.86 325 478.91 322.31 479.45 324.5 467.4 324.5 467.4"/><polygon class="cls-2" points="342.95 463.71 340.76 475.75 338.25 476.25 339.54 469.1 335.18 475.64 333.99 475.88 331.56 470.63 330.24 477.86 327.73 478.36 329.92 466.31 332.11 465.88 335.07 472.51 340.65 464.17 342.95 463.71 342.95 463.71"/><path class="cls-5" d="M351.71,471.07l-5.38,1.08-1.48,2.78-2.86.58,7.37-13.09,2.64-.53,3,11-2.68.53-.57-2.37Zm-.46-1.95-1-4.27-2.68,5,3.7-.75Z"/><polygon class="cls-2" points="360.34 462.41 356.64 463.15 357.06 460.88 367.14 458.86 366.72 461.13 363.03 461.87 361.24 471.65 358.56 472.19 360.34 462.41 360.34 462.41"/><polygon class="cls-2" points="368.58 458.57 371.27 458.03 369.07 470.08 366.38 470.62 368.58 458.57 368.58 458.57"/><path class="cls-5" d="M374.79,468.51a3.47,3.47,0,0,1-2-1.39,4.38,4.38,0,0,1-.7-2.49,8,8,0,0,1,.85-3.72,8.62,8.62,0,0,1,2.51-3,8.86,8.86,0,0,1,3.72-1.66,6.36,6.36,0,0,1,3,0,3.5,3.5,0,0,1,2,1.38,4.41,4.41,0,0,1,.7,2.5,8.12,8.12,0,0,1-.87,3.74,8.56,8.56,0,0,1-2.51,3,8.87,8.87,0,0,1-3.71,1.65,6.45,6.45,0,0,1-3,0Zm5.45-3.37a5.29,5.29,0,0,0,1.45-1.93,5.51,5.51,0,0,0,.49-2.37,2.28,2.28,0,0,0-.85-1.94,2.86,2.86,0,0,0-2.33-.32,4.87,4.87,0,0,0-2.23,1.06,5.29,5.29,0,0,0-1.45,1.93,5.51,5.51,0,0,0-.49,2.37,2.33,2.33,0,0,0,.84,1.95,2.89,2.89,0,0,0,2.34.31,4.87,4.87,0,0,0,2.23-1.06Z"/><polygon class="cls-2" points="398.56 452.57 396.36 464.62 394.16 465.06 389.78 458.67 388.39 466.21 385.75 466.74 387.95 454.69 390.16 454.25 394.55 460.65 395.91 453.1 398.56 452.57 398.56 452.57"/><path class="cls-2" d="M276.7,349.72c.17,1.94-3.08-42.71-3.08-42.71h.07s5.66,40.88,5.79,42.39c.16,1.79,3.07,42.73,3.07,42.73h-.06s-5.95-44.15-5.79-42.41Z"/><path class="cls-2" d="M219,293.72c.13,1.24-2.17-27.47-2.17-27.47h.07s4.77,26.08,4.87,27c.12,1.15,2.17,27.49,2.17,27.49h-.06s-5-28.18-4.88-27.06Z"/><path class="cls-2" d="M311.89,305.13c.06.66-.8-14.54-.8-14.54h.05s3.06,14,3.11,14.49.8,14.56.8,14.56H315s-3.17-15.1-3.11-14.51Z"/><path class="cls-2" d="M208.82,332.29c.2,1.94-3.82-42.65-3.82-42.65h.06s6.38,40.78,6.53,42.28c.19,1.79,3.82,42.68,3.82,42.68h-.06s-6.72-44-6.53-42.31Z"/><path class="cls-2" d="M197.49,311.34c.07.66-.8-14.54-.8-14.54h.06s3.06,14,3.1,14.5.81,14.55.81,14.55h-.06s-3.16-15.09-3.11-14.5Z"/><path class="cls-2" d="M253.35,303.37l6.57,97.73-14.06-98.29a40.19,40.19,0,0,0,6.75.56Z"/><path class="cls-2" d="M261.23,302.44,267,374.69l-1.86-12.85-8.33-58.68a39.17,39.17,0,0,0,4.42-.72Z"/><path class="cls-2" d="M268.92,299.76,273,360.22l-8.4-58.7a34.21,34.21,0,0,0,4.34-1.76Z"/><path class="cls-3" d="M264.07,271.49c0,.67,0-14.56,0-14.56h.05s2.32,14.12,2.34,14.64,0,14.57,0,14.57h0s-2.37-15.24-2.34-14.65Z"/><path class="cls-3" d="M244.47,197.15a12.21,12.21,0,0,0,3.24,8.3A12.27,12.27,0,1,1,257,184.88h-.29a12.27,12.27,0,0,0-12.27,12.27Z"/><path class="cls-3" d="M239.43,276q1.32,7.77,3.87,19.66a20.35,20.35,0,0,0,3.19.35c-1.15-4.62-3.33-16.4-3.67-19.88-1.31-.06-2.33,0-3.39-.13Z"/><path class="cls-3" d="M255.87,285c0,.66,0-14.57,0-14.57h.06s2.32,14.13,2.34,14.64,0,14.58,0,14.58h0s-2.37-15.24-2.35-14.64Z"/></g></g></svg>